<?xml version="1.0" encoding="UTF-8"?>
<svg id="_图层_1" data-name="图层_1" xmlns="http://www.w3.org/2000/svg" viewBox="0 0 383.9 439.8">
  <defs>
    <style>
      .cls-1 {
        fill:white;
      }
    </style>
  </defs>
  <g id="_图层_1-2" data-name="_图层_1">
    <path class="cls-1" d="M185.5,439.8c-2.5-1.6-4.8-3.3-7.4-4.8-7.9-4.6-15.8-9.2-23.7-13.7-8.9-5.1-17.8-10.1-26.7-15.3-8.5-4.9-17-9.9-25.5-14.9-6.9-4-13.8-7.9-20.7-11.9-8.5-4.9-17.1-9.8-25.6-14.8-7.8-4.5-15.5-9-23.3-13.5-7.7-4.4-15.4-8.9-23.1-13.3-2.7-1.5-5.3-3.2-8-4.6-1.2-.6-1.6-1.4-1.5-2.6V116.2c3.2,1.8,6,3.3,8.8,4.9,8.4,4.9,16.9,9.8,25.3,14.8,11.7,6.8,23.4,13.7,35.1,20.5,12.5,7.2,25,14.4,37.4,21.6,12.3,7.1,24.5,14.3,36.7,21.4,10.5,6.1,21,12.1,31.5,18.2,3.5,2,6.9,4,10.4,6.1.5.3.8,1.2,1,1.9.2.6,0,1.3,0,1.9v208.8c0,1.1.1,2.2.1,3.3-.2.2-.5.2-.8.2h0ZM170.3,398.6v-73.5c0-.9-.4-2.3-1.1-2.8-8-4.8-16.2-9.5-24.3-14.2-10.8-6.3-21.5-12.5-32.3-18.8-2.4-1.4-4.9-2.7-7.7-4.3v73.6c0,.9.4,2.3,1.1,2.8,4.1,2.5,8.3,4.9,12.4,7.3,7.6,4.4,15.3,8.8,22.9,13.2,9.5,5.3,18.9,10.8,29,16.7h0ZM170.3,309.9v-73.6c0-.9-.4-2.1-1.1-2.5-9.5-5.7-19.1-11.3-28.7-16.9-8.4-4.9-16.9-9.8-25.3-14.7-3.3-1.9-6.6-3.7-10.3-5.8v70.7c0,3.4.3,5.7,4,7.5,8.1,4.1,15.8,8.9,23.6,13.5,7.8,4.5,15.5,9,23.3,13.5,4.6,2.6,9.3,5.2,14.6,8.3h-.1Z"/>
    <path class="cls-1" d="M126.8,155.4c28.3,16.4,56.2,32.5,84.5,48.9-6.7,3.6-13.1,7-19.4,10.4-62-36-123.8-71.9-186-108,8-4.6,15.6-9.1,23.3-13.5,7.7-4.4,15.4-8.9,23.1-13.3,7.8-4.5,15.5-9,23.3-13.5,7.8-4.5,15.7-9.1,23.5-13.6,7.7-4.4,15.4-8.9,23.1-13.3,7.7-4.4,15.4-8.9,23.1-13.3,7.8-4.5,15.5-9,23.3-13.5,6.7-3.9,13.4-7.7,20-11.6,2-1.2,3.6-1.5,5.7-.2,9.6,5.7,19.3,11.3,29,16.9,8.9,5.2,17.9,10.2,26.9,15.4,9.6,5.6,19.2,11.2,28.8,16.8,7.7,4.5,15.5,8.8,23.2,13.3,12,6.9,24,14,36,20.9,11.9,6.9,23.9,13.7,35.9,20.6,1.1.7,2.3,1.3,3.6,2.1-5.6,3.2-10.9,6.3-16.3,9.4-11.2,6.6-22.4,13.1-33.6,19.7-3.3,1.9-6.5,3.8-9.9,5.6-.8.4-2.1.4-2.9,0-11.1-6.3-22.1-12.8-33.2-19.1-8.4-4.8-16.9-9.5-25.3-14.3-7.8-4.4-15.6-8.9-23.4-13.3-.7-.4-1.8-.5-2.4,0-15.1,8.8-30.1,17.8-45.2,26.6-15,8.8-30,17.6-45.1,26.4-4.3,2.3-8.7,4.8-13.6,7.6v-.1Z"/>
    <path class="cls-1" d="M293.7,293.1c1.4-7.3,2.8-14,4.1-20.7,1.6-8.1,3.2-16.2,4.7-24.3,2.3-12,4.5-24.1,6.8-36.1,1.5-7.9,3.1-15.8,4.7-23.8,2-10.4,4-20.8,5.8-31.3.5-3.1,1.8-4.9,4.6-6.5,8.4-4.6,16.7-9.5,25-14.4,7.8-4.5,15.5-9,23.3-13.6,3.5-2.1,7.1-4.1,11-6.4.1,1.2.2,2,.2,2.7v211c0,1.4-.3,2.2-1.7,2.9-9.2,5.2-18.3,10.5-27.4,15.8-8.9,5.1-17.7,10.3-26.6,15.4-2.6,1.5-5.3,3-8.4,4.7v-79.9h-.5c-1.4,6.3-2.7,12.5-4.1,18.8-1.9,8.7-3.7,17.3-5.5,26-2.5,11.7-5,23.5-7.5,35.2-.8,3.6-1.5,7.2-2.4,10.8-.1.5-.8,1.1-1.3,1.4-7.1,4.1-14.2,8.2-21.2,12.3-.5.3-1.1.6-1.8,1.1-2.3-4.8-4.6-9.6-6.8-14.4-2.8-6-5.5-12-8.3-18-7-15.1-13.9-30.2-20.9-45.3-3.7-7.9-7.3-15.7-11.1-23.5-1.7-3.5-2.6-6.9-2.6-10.9.2-23.9.1-47.8,0-71.7,0-2,.4-3.2,2.4-4.2,7.6-4.2,15-8.7,22.8-13.3,14.2,33.5,28.3,66.6,42.7,100.2h0Z"/>
    <path class="cls-1" d="M197.6,439.5v-173.7c0-1.7.3-2.8,2-3.7,5.4-2.9,10.6-6.1,16.3-9.4.1,1.1.1,1.8.1,2.6v171.7c0,1.4-.3,2.2-1.7,2.9-5.4,2.9-10.8,6.1-16.7,9.6h0Z"/>
    <path class="cls-1" d="M197.6,250.1c0-8.4,0-16.7.1-24.9,0-.6.7-1.3,1.3-1.7,5.3-3.1,10.6-6.2,15.9-9.2.3-.1.6-.2,1.1-.3v18.7c0,2.5.7,5.4-.4,7.3-1.1,1.8-4,2.6-6.1,3.8-3.7,2.1-7.4,4.2-11.1,6.2h-.8v.1Z"/>
  </g>
</svg>